<svg viewBox="-768 -347.5 1536 695" width="1536" height="695" style="background-color: rgb(255, 255, 255);" xmlns="http://www.w3.org/2000/svg"><path d="M-117.95137302514246,-31.0651182724432L-169.8478996925266,-52.02544750576793M-169.8478996925266,-150.8662541922304L-169.8478996925266,-52.02544750576793M-169.8478996925266,-52.02544750576793L-244.29942658363316,-16.402441177031793" style="fill:none;stroke:rgb(0,0,0);stroke-width:1;stroke-linecap:round"></path><path d="M-117.95137302514246,-31.065118272443208L-169.84789969252657,-52.02544750576793L-169.84789969252657,-150.8662541922304zM-244.29942658363316,-16.402441177031797L-169.84789969252657,-52.02544750576793L-117.95137302514246,-31.065118272443208z" style="fill:rgb(238,238,238); fill-opacity: 0.24"></path><path d="M-117.95137302514246,-129.90592495890567L-117.95137302514246,-31.0651182724432M-117.95137302514246,-31.0651182724432L-192.40289991624908,4.557888056292932M-117.95137302514246,-129.90592495890567L-169.8478996925266,-150.8662541922304M-169.8478996925266,-150.8662541922304L-244.29942658363316,-115.24324786349426" style="fill:none;stroke:rgb(0,0,0);stroke-width:1;stroke-linecap:round"></path><path d="M-169.84789969252657,-150.8662541922304L-169.84789969252657,-52.02544750576793L-244.29942658363316,-115.24324786349426zM-117.95137302514246,-129.90592495890567L-117.95137302514246,-31.065118272443208L-169.84789969252657,-150.8662541922304zM-169.84789969252657,-52.02544750576793L-244.29942658363316,-16.402441177031797L-244.29942658363316,-115.24324786349426z" style="fill:rgb(238,238,238); fill-opacity: 0.24"></path><path d="M-244.29942658363316,-115.24324786349426L-244.29942658363316,-16.402441177031793M-244.29942658363316,-16.402441177031793L-192.40289991624908,4.557888056292932" style="fill:none;stroke:rgb(0,0,0);stroke-width:1;stroke-linecap:round"></path><path d="M-192.40289991624905,4.557888056292927L-244.29942658363316,-16.402441177031797L-117.95137302514246,-31.065118272443208z" style="fill:rgb(238,238,238); fill-opacity: 0.24"></path><path d="M-168.98023044388026,-68.89314827811349L-220.8767571112644,-89.85347751143821M-220.8767571112644,-109.94438692782086L-220.8767571112644,-89.85347751143821M-220.8767571112644,-89.85347751143821L-236.0101714653731,-82.6125552923373" style="fill:none;stroke:rgb(0,0,0);stroke-width:1;stroke-linecap:round"></path><path d="M-192.40289991624905,4.557888056292927L-117.95137302514246,-31.065118272443208L-117.95137302514246,-129.90592495890567z" style="fill:rgb(238,238,238); fill-opacity: 0.24"></path><path d="M-168.98023044388026,-88.98405769449612L-220.8767571112644,-109.94438692782086M-220.8767571112644,-109.94438692782086L-236.0101714653731,-102.70346470871995M-117.95137302514246,-129.90592495890567L-192.40289991624908,-94.28291863016953" style="fill:none;stroke:rgb(0,0,0);stroke-width:1;stroke-linecap:round"></path><path d="M-220.87675711126434,-109.94438692782084L-220.87675711126434,-89.85347751143821L-236.0101714653731,-102.70346470871995zM-220.87675711126434,-89.85347751143821L-236.0101714653731,-82.6125552923373L-236.0101714653731,-102.70346470871995z" style="fill:rgb(153,221,255); fill-opacity: 0.48"></path><path d="M-236.0101714653731,-102.70346470871995L-236.0101714653731,-82.6125552923373M-236.0101714653731,-82.6125552923373L-184.113644797989,-61.65222605901258M-5.039145079390792,12.415799184915196L-67.31497251049711,-12.73659404941028M-67.31497251049711,-98.91744482036198L-67.31497251049711,-12.73659404941028M-67.31497251049711,-12.73659404941028L-132.2304274098626,18.323664312988907" style="fill:none;stroke:rgb(0,0,0);stroke-width:1;stroke-linecap:round"></path><path d="M-168.98023044388026,-68.89314827811347L-220.87675711126434,-89.85347751143821L-220.87675711126434,-109.94438692782084zM-236.0101714653731,-82.6125552923373L-220.87675711126434,-89.85347751143821L-168.98023044388026,-68.89314827811347z" style="fill:rgb(153,221,255); fill-opacity: 0.48"></path><path d="M-192.40289991624905,-94.28291863016953L-117.95137302514246,-129.90592495890567L-169.84789969252657,-150.8662541922304z" style="fill:rgb(238,238,238); fill-opacity: 0.24"></path><path d="M-236.0101714653731,-102.70346470871995L-184.113644797989,-81.74313547539522" style="fill:none;stroke:rgb(0,0,0);stroke-width:1;stroke-linecap:round"></path><path d="M-244.29942658363316,-115.24324786349426L-192.40289991624905,-94.28291863016953L-169.84789969252657,-150.8662541922304z" style="fill:rgb(238,238,238); fill-opacity: 0.24"></path><path d="M-236.0101714653731,-102.70346470871995L-184.113644797989,-81.7431354753952L-220.87675711126434,-109.94438692782084zM-168.98023044388026,-88.98405769449612L-168.98023044388026,-68.89314827811347L-220.87675711126434,-109.94438692782084z" style="fill:rgb(153,221,255); fill-opacity: 0.48"></path><path d="M-192.40289991624908,-94.28291863016953L-192.40289991624908,4.557888056292932" style="fill:none;stroke:rgb(0,0,0);stroke-width:1;stroke-linecap:round"></path><path d="M-236.0101714653731,-102.70346470871995L-236.0101714653731,-82.6125552923373L-184.113644797989,-81.7431354753952z" style="fill:rgb(153,221,255); fill-opacity: 0.48"></path><path d="M-244.29942658363316,-16.402441177031797L-192.40289991624905,4.557888056292927L-192.40289991624905,-94.28291863016953z" style="fill:rgb(238,238,238); fill-opacity: 0.24"></path><path d="M-184.113644797989,-61.65222605901258L-236.0101714653731,-82.6125552923373L-168.98023044388026,-68.89314827811347z" style="fill:rgb(153,221,255); fill-opacity: 0.48"></path><path d="M-244.29942658363316,-115.24324786349426L-244.29942658363316,-16.402441177031797L-192.40289991624905,-94.28291863016953z" style="fill:rgb(238,238,238); fill-opacity: 0.24"></path><path d="M-244.29942658363316,-115.24324786349426L-192.40289991624908,-94.28291863016953M-168.98023044388026,-88.98405769449612L-168.98023044388026,-68.89314827811349M-168.98023044388026,-68.89314827811349L-184.113644797989,-61.65222605901258M-168.98022768776576,-88.98405760666896L-168.98022768776576,-68.89314731936884M-168.98022768776576,-68.89314731936884L-184.11364072984284,-61.65222572803898M-168.98022768776576,-68.89314731936884L-118.40536201653813,-51.32149827552156" style="fill:none;stroke:rgb(0,0,0);stroke-width:1;stroke-linecap:round"></path><path d="M-192.40289991624905,-94.28291863016953L-192.40289991624905,4.557888056292927L-117.95137302514246,-129.90592495890567z" style="fill:rgb(238,238,238); fill-opacity: 0.24"></path><path d="M-184.113644797989,-81.7431354753952L-168.98023044388026,-88.98405769449612L-220.87675711126434,-109.94438692782084zM-236.0101714653731,-82.6125552923373L-184.113644797989,-61.65222605901258L-184.113644797989,-81.7431354753952z" style="fill:rgb(153,221,255); fill-opacity: 0.48"></path><path d="M-5.039145079390793,12.415799184915194L-67.31497251049713,-12.736594049410286L-67.31497251049713,-98.917444820362z" style="fill:rgb(238,238,238); fill-opacity: 0.24"></path><path d="M-18.29943882932701,-18.689337970281272L-80.57526626043332,-43.84173120460675M-80.57526626043332,-52.97396275750794L-80.57526626043332,-43.84173120460675M-80.57526626043332,-43.84173120460675L-87.45409096684641,-40.55040292319725" style="fill:none;stroke:rgb(0,0,0);stroke-width:1;stroke-linecap:round"></path><path d="M-168.98023122920594,-88.98405801167893L-168.98023122920594,-68.89314859529628L-184.1136455833147,-61.65222637619537z" style="fill:rgb(255,187,187); fill-opacity: 0.48"></path><path d="M-184.113644797989,-61.65222605901258L-168.98023044388026,-68.89314827811347L-168.98023044388026,-88.98405769449612z" style="fill:rgb(153,221,255); fill-opacity: 0.48"></path><path d="M-18.29943882932701,-27.821569523182472L-80.57526626043332,-52.97396275750794M-80.57526626043332,-52.97396275750794L-87.45409096684641,-49.68263447609845" style="fill:none;stroke:rgb(0,0,0);stroke-width:1;stroke-linecap:round"></path><path d="M-80.57526626043335,-52.973962757507955L-80.57526626043335,-43.84173120460675L-87.45409096684642,-49.68263447609845z" style="fill:rgb(153,221,255); fill-opacity: 0.48"></path><path d="M-168.98023044388026,-88.98405769449612L-184.113644797989,-81.74313547539522M-168.98022768776576,-88.98405760666896L-184.11364072984284,-81.74313601533909M-168.98022768776576,-88.98405760666896L-118.40536201653813,-51.32149827552156" style="fill:none;stroke:rgb(0,0,0);stroke-width:1;stroke-linecap:round"></path><path d="M-80.57526626043335,-43.84173120460675L-87.45409096684642,-40.550402923197254L-87.45409096684642,-49.68263447609845z" style="fill:rgb(153,221,255); fill-opacity: 0.48"></path><path d="M-87.45409096684641,-49.68263447609845L-87.45409096684641,-40.55040292319725M-87.45409096684641,-40.55040292319725L-25.178263535740072,-15.398009688871772" style="fill:none;stroke:rgb(0,0,0);stroke-width:1;stroke-linecap:round"></path><path d="M-132.2304274098626,18.323664312988896L-67.31497251049713,-12.736594049410286L-5.039145079390793,12.415799184915194z" style="fill:rgb(238,238,238); fill-opacity: 0.24"></path><path d="M-184.113644797989,-81.74313547539522L-184.113644797989,-61.65222605901258M-184.11364072984284,-61.65222572803898L-184.11364072984284,-81.74313601533909M-184.11364072984284,-61.65222572803898L-118.40536201653813,-51.32149827552156M-5.039145079390792,-73.7650515860365L-67.31497251049711,-98.91744482036198M-67.31497251049711,-98.91744482036198L-132.2304274098626,-67.8571864579628M-87.45409096684641,-49.68263447609845L-25.178263535740072,-24.53024124177297" style="fill:none;stroke:rgb(0,0,0);stroke-width:1;stroke-linecap:round"></path><path d="M-168.98023122920594,-88.98405801167893L-184.1136455833147,-61.65222637619537L-184.1136455833147,-81.743135792578z" style="fill:rgb(255,187,187); fill-opacity: 0.48"></path><path d="M-184.113644797989,-81.7431354753952L-184.113644797989,-61.65222605901258L-168.98023044388026,-88.98405769449612z" style="fill:rgb(153,221,255); fill-opacity: 0.48"></path><path d="M-168.98023122920594,-68.89314859529628L-168.98023122920594,-88.98405801167893L-118.40536530932992,-51.3214998593544z" style="fill:rgb(255,187,187); fill-opacity: 0.48"></path><path d="M-67.31497251049713,-98.917444820362L-67.31497251049713,-12.736594049410286L-132.2304274098626,-67.8571864579628z" style="fill:rgb(238,238,238); fill-opacity: 0.24"></path><path d="M-184.1136455833147,-61.65222637619537L-168.98023122920594,-68.89314859529628L-118.40536530932992,-51.3214998593544z" style="fill:rgb(255,187,187); fill-opacity: 0.48"></path><path d="M-18.299438829327013,-18.68933797028128L-80.57526626043335,-43.84173120460675L-80.57526626043335,-52.973962757507955zM-87.45409096684642,-40.550402923197254L-80.57526626043335,-43.84173120460675L-18.299438829327013,-18.68933797028128z" style="fill:rgb(153,221,255); fill-opacity: 0.48"></path><path d="M-5.039145079390792,-73.7650515860365L-5.039145079390792,12.415799184915196M-5.039145079390792,12.415799184915196L-69.95459997875628,43.476057547314376M-184.11364072984284,-81.74313601533909L-118.40536201653813,-51.32149827552156" style="fill:none;stroke:rgb(0,0,0);stroke-width:1;stroke-linecap:round"></path><path d="M-168.98023122920594,-88.98405801167893L-184.1136455833147,-81.743135792578L-118.40536530932992,-51.3214998593544z" style="fill:rgb(255,187,187); fill-opacity: 0.48"></path><path d="M-67.31497251049713,-12.736594049410286L-132.2304274098626,18.323664312988896L-132.2304274098626,-67.8571864579628z" style="fill:rgb(238,238,238); fill-opacity: 0.24"></path><path d="M-87.45409096684642,-49.68263447609845L-25.17826353574008,-24.530241241772973L-80.57526626043335,-52.973962757507955z" style="fill:rgb(153,221,255); fill-opacity: 0.48"></path><path d="M-184.1136455833147,-81.743135792578L-184.1136455833147,-61.65222637619537L-118.40536530932992,-51.3214998593544z" style="fill:rgb(255,187,187); fill-opacity: 0.48"></path><path d="M-87.45409096684642,-49.68263447609845L-87.45409096684642,-40.550402923197254L-25.17826353574008,-24.530241241772973z" style="fill:rgb(153,221,255); fill-opacity: 0.48"></path><path d="M-5.039145079390793,-73.7650515860365L-5.039145079390793,12.415799184915194L-67.31497251049713,-98.917444820362z" style="fill:rgb(238,238,238); fill-opacity: 0.24"></path><path d="M-132.2304274098626,-67.8571864579628L-132.2304274098626,18.323664312988907M-132.2304274098626,18.323664312988907L-69.95459997875628,43.476057547314376" style="fill:none;stroke:rgb(0,0,0);stroke-width:1;stroke-linecap:round"></path><path d="M-18.299438829327013,-27.821569523182482L-18.299438829327013,-18.68933797028128L-80.57526626043335,-52.973962757507955zM-25.17826353574008,-15.398009688871774L-87.45409096684642,-40.550402923197254L-18.299438829327013,-18.68933797028128zM-25.17826353574008,-24.530241241772973L-18.299438829327013,-27.821569523182482L-80.57526626043335,-52.973962757507955zM-87.45409096684642,-40.550402923197254L-25.17826353574008,-15.398009688871774L-25.17826353574008,-24.530241241772973z" style="fill:rgb(153,221,255); fill-opacity: 0.48"></path><path d="M-69.95459997875628,43.476057547314376L-132.2304274098626,18.323664312988896L-5.039145079390793,12.415799184915194z" style="fill:rgb(238,238,238); fill-opacity: 0.24"></path><path d="M-18.29943882932701,-27.821569523182472L-18.29943882932701,-18.689337970281272M-18.29943882932701,-18.689337970281272L-25.178263535740072,-15.398009688871772M-18.299436223187488,-27.821568661558914L-18.299436223187488,-18.689336890928345M-18.299436223187488,-18.689336890928345L-25.178260929600555,-15.398008609518845M-18.299436223187488,-18.689336890928345L31.350733013543014,1.7170901394533975" style="fill:none;stroke:rgb(0,0,0);stroke-width:1;stroke-linecap:round"></path><path d="M-25.17826353574008,-15.398009688871774L-18.299438829327013,-18.68933797028128L-18.299438829327013,-27.821569523182482z" style="fill:rgb(153,221,255); fill-opacity: 0.48"></path><path d="M-18.299437486840567,-27.821568980969733L-18.299437486840567,-18.689337428068537L-25.17826219325363,-15.398009146659032z" style="fill:rgb(255,187,187); fill-opacity: 0.48"></path><path d="M-69.95459997875628,43.476057547314376L-5.039145079390793,12.415799184915194L-5.039145079390793,-73.7650515860365z" style="fill:rgb(238,238,238); fill-opacity: 0.24"></path><path d="M-18.29943882932701,-27.821569523182472L-25.178263535740072,-24.53024124177297M-18.299436223187488,-27.821568661558914L-25.178260929600555,-24.53024038014941M-18.299436223187488,-27.821568661558914L31.350733013543014,1.7170901394533975M-25.178263535740072,-24.53024124177297L-25.178263535740072,-15.398009688871772M-25.178260929600555,-15.398008609518845L-25.178260929600555,-24.53024038014941M-25.178260929600555,-15.398008609518845L31.350733013543014,1.7170901394533975" style="fill:none;stroke:rgb(0,0,0);stroke-width:1;stroke-linecap:round"></path><path d="M-25.17826353574008,-24.530241241772973L-25.17826353574008,-15.398009688871774L-18.299438829327013,-27.821569523182482z" style="fill:rgb(153,221,255); fill-opacity: 0.48"></path><path d="M-18.299437486840567,-27.821568980969733L-25.17826219325363,-15.398009146659032L-25.17826219325363,-24.53024069956023z" style="fill:rgb(255,187,187); fill-opacity: 0.48"></path><path d="M-5.039145079390792,-73.7650515860365L-69.95459997875628,-42.704793223637324M-25.178260929600555,-24.53024038014941L31.350733013543014,1.7170901394533975" style="fill:none;stroke:rgb(0,0,0);stroke-width:1;stroke-linecap:round"></path><path d="M-69.95459997875628,-42.704793223637324L-5.039145079390793,-73.7650515860365L-67.31497251049713,-98.917444820362zM-132.2304274098626,-67.8571864579628L-69.95459997875628,-42.704793223637324L-67.31497251049713,-98.917444820362z" style="fill:rgb(238,238,238); fill-opacity: 0.24"></path><path d="M-18.299437486840567,-18.689337428068537L-18.299437486840567,-27.821568980969733L31.350733791523005,1.7170899737180345zM-25.17826219325363,-15.398009146659032L-18.299437486840567,-18.689337428068537L31.350733791523005,1.7170899737180345z" style="fill:rgb(255,187,187); fill-opacity: 0.48"></path><path d="M107.87308237010963,55.89671527354135L45.597254939003314,30.744322039215874M45.597254939003314,-42.77656584888532L45.597254939003314,30.744322039215874M45.597254939003314,30.744322039215874L-9.782122720494275,57.24182992419392M-132.2304274098626,-67.8571864579628L-69.95459997875628,-42.704793223637324" style="fill:none;stroke:rgb(0,0,0);stroke-width:1;stroke-linecap:round"></path><path d="M-18.299437486840567,-27.821568980969733L-25.17826219325363,-24.53024069956023L31.350733791523005,1.7170899737180345zM-25.17826219325363,-24.53024069956023L-25.17826219325363,-15.398009146659032L31.350733791523005,1.7170899737180345z" style="fill:rgb(255,187,187); fill-opacity: 0.48"></path><path d="M-132.2304274098626,-67.8571864579628L-132.2304274098626,18.323664312988896L-69.95459997875628,-42.704793223637324zM-132.2304274098626,18.323664312988896L-69.95459997875628,43.476057547314376L-69.95459997875628,-42.704793223637324z" style="fill:rgb(238,238,238); fill-opacity: 0.24"></path><path d="M-69.95459997875628,-42.704793223637324L-69.95459997875628,43.476057547314376M101.22451527984681,50.48164852689884L38.94868784874048,25.329255292573357M38.94868784874048,19.849916360832637L38.94868784874048,25.329255292573357M38.94868784874048,25.329255292573357L34.821393024892636,27.30405226141906M101.22451527984681,45.00230959515812L38.94868784874048,19.849916360832637M38.94868784874048,19.849916360832637L34.821393024892636,21.82471332967834" style="fill:none;stroke:rgb(0,0,0);stroke-width:1;stroke-linecap:round"></path><path d="M38.94868784874048,19.849916360832637L38.94868784874048,25.329255292573357L34.821393024892636,21.82471332967834zM38.94868784874048,25.329255292573357L34.821393024892636,27.30405226141906L34.821393024892636,21.82471332967834z" style="fill:rgb(153,221,255); fill-opacity: 0.48"></path><path d="M34.821393024892636,21.82471332967834L34.821393024892636,27.30405226141906M34.821393024892636,27.30405226141906L97.09722045599895,52.45644549574453" style="fill:none;stroke:rgb(0,0,0);stroke-width:1;stroke-linecap:round"></path><path d="M-69.95459997875628,-42.704793223637324L-69.95459997875628,43.476057547314376L-5.039145079390793,-73.7650515860365z" style="fill:rgb(238,238,238); fill-opacity: 0.24"></path><path d="M34.821393024892636,21.82471332967834L97.09722045599895,46.97710656400381" style="fill:none;stroke:rgb(0,0,0);stroke-width:1;stroke-linecap:round"></path><path d="M101.22451527984681,50.48164852689884L38.94868784874048,25.329255292573357L38.94868784874048,19.849916360832637z" style="fill:rgb(153,221,255); fill-opacity: 0.48"></path><path d="M107.87308237010964,55.89671527354136L45.59725493900332,30.744322039215874L45.59725493900332,-42.776565848885326z" style="fill:rgb(238,238,238); fill-opacity: 0.24"></path><path d="M34.821393024892636,27.30405226141906L38.94868784874048,25.329255292573357L101.22451527984681,50.48164852689884zM34.821393024892636,21.82471332967834L97.09722045599898,46.97710656400382L38.94868784874048,19.849916360832637zM34.821393024892636,21.82471332967834L34.821393024892636,27.30405226141906L97.09722045599898,46.97710656400382z" style="fill:rgb(153,221,255); fill-opacity: 0.48"></path><path d="M-9.782122720494277,57.24182992419392L45.59725493900332,30.744322039215874L107.87308237010964,55.89671527354136z" style="fill:rgb(238,238,238); fill-opacity: 0.24"></path><path d="M107.87308237010963,-17.62417261455985L45.597254939003314,-42.77656584888532M45.597254939003314,-42.77656584888532L-9.782122720494275,-16.27905796390728" style="fill:none;stroke:rgb(0,0,0);stroke-width:1;stroke-linecap:round"></path><path d="M45.59725493900332,-42.776565848885326L45.59725493900332,30.744322039215874L-9.782122720494277,-16.27905796390728z" style="fill:rgb(238,238,238); fill-opacity: 0.24"></path><path d="M101.22451527984681,45.00230959515812L101.22451527984681,50.48164852689884L38.94868784874048,19.849916360832637zM97.09722045599898,52.45644549574454L34.821393024892636,27.30405226141906L101.22451527984681,50.48164852689884z" style="fill:rgb(153,221,255); fill-opacity: 0.48"></path><path d="M45.59725493900332,30.744322039215874L-9.782122720494277,57.24182992419392L-9.782122720494277,-16.27905796390728z" style="fill:rgb(238,238,238); fill-opacity: 0.24"></path><path d="M97.09722045599898,46.97710656400382L101.22451527984681,45.00230959515812L38.94868784874048,19.849916360832637zM34.821393024892636,27.30405226141906L97.09722045599898,52.45644549574454L97.09722045599898,46.97710656400382z" style="fill:rgb(153,221,255); fill-opacity: 0.48"></path><path d="M107.87308237010963,-17.62417261455985L107.87308237010963,55.89671527354135M107.87308237010963,55.89671527354135L52.49370471061204,82.39422315851938M-9.782122720494275,-16.27905796390728L-9.782122720494275,57.24182992419392M-9.782122720494275,57.24182992419392L52.49370471061204,82.39422315851938" style="fill:none;stroke:rgb(0,0,0);stroke-width:1;stroke-linecap:round"></path><path d="M107.87308237010964,-17.62417261455985L107.87308237010964,55.89671527354136L45.59725493900332,-42.776565848885326z" style="fill:rgb(238,238,238); fill-opacity: 0.24"></path><path d="M101.22451527984681,45.00230959515812L101.22451527984681,50.48164852689884M101.22451527984681,50.48164852689884L97.09722045599895,52.45644549574453M101.22451508444732,45.00230894942787L101.22451508444732,50.48164788116859M101.22451508444732,50.48164788116859L97.09722026059949,52.456444850014286M101.22451508444732,50.48164788116859L154.56530362587856,71.10650487231095" style="fill:none;stroke:rgb(0,0,0);stroke-width:1;stroke-linecap:round"></path><path d="M97.09722045599898,52.45644549574454L101.22451527984681,50.48164852689884L101.22451527984681,45.00230959515812z" style="fill:rgb(153,221,255); fill-opacity: 0.48"></path><path d="M101.22451662233325,45.00231013737087L101.22451662233325,50.48164906911159L97.09722179848542,52.45644603795728z" style="fill:rgb(255,187,187); fill-opacity: 0.48"></path><path d="M101.22451527984681,45.00230959515812L97.09722045599895,46.97710656400381M101.22451508444732,45.00230894942787L97.09722026059949,46.977105918273566M101.22451508444732,45.00230894942787L154.56530362587856,71.10650487231095M97.09722045599895,46.97710656400381L97.09722045599895,52.45644549574453M97.09722026059949,52.456444850014286L97.09722026059949,46.977105918273566M97.09722026059949,52.456444850014286L154.56530362587856,71.10650487231095" style="fill:none;stroke:rgb(0,0,0);stroke-width:1;stroke-linecap:round"></path><path d="M97.09722045599898,46.97710656400382L97.09722045599898,52.45644549574454L101.22451527984681,45.00230959515812z" style="fill:rgb(153,221,255); fill-opacity: 0.48"></path><path d="M101.22451662233325,45.00231013737087L97.09722179848542,52.45644603795728L97.09722179848542,46.97710710621656z" style="fill:rgb(255,187,187); fill-opacity: 0.48"></path><path d="M97.09722026059949,46.977105918273566L154.56530362587856,71.10650487231095" style="fill:none;stroke:rgb(0,0,0);stroke-width:1;stroke-linecap:round"></path><path d="M52.493704710612064,82.3942231585194L-9.782122720494277,57.24182992419392L107.87308237010964,55.89671527354136z" style="fill:rgb(238,238,238); fill-opacity: 0.24"></path><path d="M101.22451662233325,50.48164906911159L101.22451662233325,45.00231013737087L154.5653051637645,71.10650606025395zM97.09722179848542,52.45644603795728L101.22451662233325,50.48164906911159L154.5653051637645,71.10650606025395z" style="fill:rgb(255,187,187); fill-opacity: 0.48"></path><path d="M52.493704710612064,82.3942231585194L107.87308237010964,55.89671527354136L107.87308237010964,-17.62417261455985z" style="fill:rgb(238,238,238); fill-opacity: 0.24"></path><path d="M101.22451662233325,45.00231013737087L97.09722179848542,46.97710710621656L154.5653051637645,71.10650606025395zM97.09722179848542,46.97710710621656L97.09722179848542,52.45644603795728L154.5653051637645,71.10650606025395z" style="fill:rgb(255,187,187); fill-opacity: 0.48"></path><path d="M107.87308237010963,-17.62417261455985L52.49370471061204,8.873335270418195" style="fill:none;stroke:rgb(0,0,0);stroke-width:1;stroke-linecap:round"></path><path d="M52.493704710612064,8.873335270418195L107.87308237010964,-17.62417261455985L45.59725493900332,-42.776565848885326zM-9.782122720494277,-16.27905796390728L52.493704710612064,8.873335270418195L45.59725493900332,-42.776565848885326z" style="fill:rgb(238,238,238); fill-opacity: 0.24"></path><path d="M-9.782122720494275,-16.27905796390728L52.49370471061204,8.873335270418195" style="fill:none;stroke:rgb(0,0,0);stroke-width:1;stroke-linecap:round"></path><path d="M-9.782122720494277,-16.27905796390728L-9.782122720494277,57.24182992419392L52.493704710612064,8.873335270418195z" style="fill:rgb(238,238,238); fill-opacity: 0.24"></path><path d="M235.93265418717502,107.6183035788186L163.27752028015323,78.27384403641213M163.27752028015323,4.752956148310927L163.27752028015323,78.27384403641213M163.27752028015323,78.27384403641213L107.89814262065565,104.77135192139018" style="fill:none;stroke:rgb(0,0,0);stroke-width:1;stroke-linecap:round"></path><path d="M-9.782122720494277,57.24182992419392L52.493704710612064,82.3942231585194L52.493704710612064,8.873335270418195z" style="fill:rgb(238,238,238); fill-opacity: 0.24"></path><path d="M52.49370471061204,8.873335270418195L52.49370471061204,82.39422315851938" style="fill:none;stroke:rgb(0,0,0);stroke-width:1;stroke-linecap:round"></path><path d="M52.493704710612064,8.873335270418195L52.493704710612064,82.3942231585194L107.87308237010964,-17.62417261455985zM235.93265418717502,107.61830357881858L163.27752028015323,78.27384403641213L163.27752028015323,4.752956148310922z" style="fill:rgb(238,238,238); fill-opacity: 0.24"></path><path d="M235.93265418717502,34.0974156907174L163.27752028015323,4.752956148310927M163.27752028015323,4.752956148310927L107.89814262065565,31.25046403328897" style="fill:none;stroke:rgb(0,0,0);stroke-width:1;stroke-linecap:round"></path><path d="M107.89814262065562,104.77135192139016L163.27752028015323,78.27384403641213L235.93265418717502,107.61830357881858z" style="fill:rgb(238,238,238); fill-opacity: 0.24"></path><path d="M200.56089595355775,110.99336096794687L127.90576204653595,81.64890142554039M127.90576204653595,76.16956249379967L127.90576204653595,81.64890142554039M127.90576204653595,81.64890142554039L123.77846722268809,83.62369839438608" style="fill:none;stroke:rgb(0,0,0);stroke-width:1;stroke-linecap:round"></path><path d="M163.27752028015323,4.752956148310922L163.27752028015323,78.27384403641213L107.89814262065562,31.250464033288967z" style="fill:rgb(238,238,238); fill-opacity: 0.24"></path><path d="M200.56089595355775,105.51402203620614L127.90576204653595,76.16956249379967M127.90576204653595,76.16956249379967L123.77846722268809,78.14435946264537" style="fill:none;stroke:rgb(0,0,0);stroke-width:1;stroke-linecap:round"></path><path d="M127.90576204653593,76.16956249379969L127.90576204653593,81.6489014255404L123.77846722268809,78.14435946264537zM127.90576204653593,81.6489014255404L123.77846722268809,83.6236983943861L123.77846722268809,78.14435946264537z" style="fill:rgb(153,221,255); fill-opacity: 0.48"></path><path d="M123.77846722268809,78.14435946264537L123.77846722268809,83.62369839438608M123.77846722268809,83.62369839438608L196.43360112970993,112.96815793679255M123.77846722268809,78.14435946264537L196.43360112970993,107.48881900505184" style="fill:none;stroke:rgb(0,0,0);stroke-width:1;stroke-linecap:round"></path><path d="M163.27752028015323,78.27384403641213L107.89814262065562,104.77135192139016L107.89814262065562,31.250464033288967z" style="fill:rgb(238,238,238); fill-opacity: 0.24"></path><path d="M107.89814262065565,31.25046403328897L107.89814262065565,104.77135192139018M107.89814262065565,104.77135192139018L180.55327652767744,134.11581146379663M235.93265418717502,34.0974156907174L235.93265418717502,107.6183035788186M235.93265418717502,107.6183035788186L180.55327652767744,134.11581146379663" style="fill:none;stroke:rgb(0,0,0);stroke-width:1;stroke-linecap:round"></path><path d="M200.56089595355772,110.99336096794687L127.90576204653593,81.6489014255404L127.90576204653593,76.16956249379969zM123.77846722268809,83.6236983943861L127.90576204653593,81.6489014255404L200.56089595355772,110.99336096794687z" style="fill:rgb(153,221,255); fill-opacity: 0.48"></path><path d="M235.93265418717502,34.0974156907174L235.93265418717502,107.61830357881858L163.27752028015323,4.752956148310922z" style="fill:rgb(238,238,238); fill-opacity: 0.24"></path><path d="M123.77846722268809,78.14435946264537L196.43360112970987,107.48881900505184L127.90576204653593,76.16956249379969zM123.77846722268809,78.14435946264537L123.77846722268809,83.6236983943861L196.43360112970987,107.48881900505184z" style="fill:rgb(153,221,255); fill-opacity: 0.48"></path><path d="M180.5532765276774,134.11581146379663L107.89814262065562,104.77135192139016L235.93265418717502,107.61830357881858z" style="fill:rgb(238,238,238); fill-opacity: 0.24"></path><path d="M200.56089595355772,105.51402203620614L200.56089595355772,110.99336096794687L127.90576204653593,76.16956249379969zM196.43360112970987,112.96815793679255L123.77846722268809,83.6236983943861L200.56089595355772,110.99336096794687zM196.43360112970987,107.48881900505184L200.56089595355772,105.51402203620614L127.90576204653593,76.16956249379969zM123.77846722268809,83.6236983943861L196.43360112970987,112.96815793679255L196.43360112970987,107.48881900505184z" style="fill:rgb(153,221,255); fill-opacity: 0.48"></path><path d="M180.5532765276774,134.11581146379663L235.93265418717502,107.61830357881858L235.93265418717502,34.0974156907174z" style="fill:rgb(238,238,238); fill-opacity: 0.24"></path><path d="M107.89814262065565,31.25046403328897L180.55327652767744,60.59492357569545" style="fill:none;stroke:rgb(0,0,0);stroke-width:1;stroke-linecap:round"></path><path d="M107.89814262065562,31.250464033288967L180.5532765276774,60.59492357569545L163.27752028015323,4.752956148310922zM180.5532765276774,60.59492357569545L235.93265418717502,34.0974156907174L163.27752028015323,4.752956148310922z" style="fill:rgb(238,238,238); fill-opacity: 0.24"></path><path d="M235.93265418717502,34.0974156907174L180.55327652767744,60.59492357569545" style="fill:none;stroke:rgb(0,0,0);stroke-width:1;stroke-linecap:round"></path><path d="M107.89814262065562,31.250464033288967L107.89814262065562,104.77135192139016L180.5532765276774,60.59492357569545z" style="fill:rgb(238,238,238); fill-opacity: 0.24"></path><path d="M200.56089366456627,105.51402054298283L200.56089366456627,110.99335947472356M200.56089366456627,110.99335947472356L196.43359949673427,112.96815612968372M200.56089366456627,110.99335947472356L257.2580180246304,122.96213293673546M200.56089595355775,105.51402203620614L200.56089595355775,110.99336096794687M200.56089595355775,110.99336096794687L196.43360112970993,112.96815793679255" style="fill:none;stroke:rgb(0,0,0);stroke-width:1;stroke-linecap:round"></path><path d="M196.43360112970987,112.96815793679255L200.56089595355772,110.99336096794687L200.56089595355772,105.51402203620614z" style="fill:rgb(153,221,255); fill-opacity: 0.48"></path><path d="M200.56089656775976,105.5140222842743L200.56089656775976,110.99336121601502L196.4336017439119,112.96815818486073z" style="fill:rgb(255,187,187); fill-opacity: 0.48"></path><path d="M200.56089366456627,105.51402054298283L196.43359949673427,107.488817197943M200.56089366456627,105.51402054298283L257.2580180246304,122.96213293673546M200.56089595355775,105.51402203620614L196.43360112970993,107.48881900505184M196.43359949673427,112.96815612968372L196.43359949673427,107.488817197943M196.43359949673427,112.96815612968372L257.2580180246304,122.96213293673546M196.43360112970993,107.48881900505184L196.43360112970993,112.96815793679255" style="fill:none;stroke:rgb(0,0,0);stroke-width:1;stroke-linecap:round"></path><path d="M196.43360112970987,107.48881900505184L196.43360112970987,112.96815793679255L200.56089595355772,105.51402203620614z" style="fill:rgb(153,221,255); fill-opacity: 0.48"></path><path d="M200.56089656775976,105.5140222842743L196.4336017439119,112.96815818486073L196.4336017439119,107.48881925312001z" style="fill:rgb(255,187,187); fill-opacity: 0.48"></path><path d="M107.89814262065562,104.77135192139016L180.5532765276774,134.11581146379663L180.5532765276774,60.59492357569545z" style="fill:rgb(238,238,238); fill-opacity: 0.24"></path><path d="M196.43359949673427,107.488817197943L257.2580180246304,122.96213293673546M180.55327652767744,60.59492357569545L180.55327652767744,134.11581146379663" style="fill:none;stroke:rgb(0,0,0);stroke-width:1;stroke-linecap:round"></path><path d="M200.56089656775976,110.99336121601502L200.56089656775976,105.5140222842743L257.2580209786506,122.96213407020338zM196.4336017439119,112.96815818486073L200.56089656775976,110.99336121601502L257.2580209786506,122.96213407020338z" style="fill:rgb(255,187,187); fill-opacity: 0.48"></path><path d="M180.5532765276774,60.59492357569545L180.5532765276774,134.11581146379663L235.93265418717502,34.0974156907174z" style="fill:rgb(238,238,238); fill-opacity: 0.24"></path><path d="M200.56089656775976,105.5140222842743L196.4336017439119,107.48881925312001L257.2580209786506,122.96213407020338zM196.4336017439119,107.48881925312001L196.4336017439119,112.96815818486073L257.2580209786506,122.96213407020338z" style="fill:rgb(255,187,187); fill-opacity: 0.48"></path><path d="M354.45614934811977,151.2426802985858L281.801015441098,121.89822075617933M281.801015441098,73.69725515010926L281.801015441098,121.89822075617933M281.801015441098,121.89822075617933L245.49378963727278,139.27022894185717M354.45614934811977,103.04171469251573L281.801015441098,73.69725515010926M281.801015441098,73.69725515010926L245.49378963727278,91.0692633357871" style="fill:none;stroke:rgb(0,0,0);stroke-width:1;stroke-linecap:round"></path><path d="M281.801015441098,73.69725515010929L281.801015441098,121.89822075617933L245.49378963727278,91.06926333578711zM354.45614934811977,151.2426802985858L281.801015441098,121.89822075617933L281.801015441098,73.69725515010929zM281.801015441098,121.89822075617933L245.49378963727278,139.27022894185717L245.49378963727278,91.06926333578711zM245.49378963727278,139.27022894185717L281.801015441098,121.89822075617933L354.45614934811977,151.2426802985858z" style="fill:rgb(238,238,238); fill-opacity: 0.24"></path><path d="M245.49378963727278,91.0692633357871L245.49378963727278,139.27022894185717M245.49378963727278,139.27022894185717L318.1489235442946,168.61468848426364" style="fill:none;stroke:rgb(0,0,0);stroke-width:1;stroke-linecap:round"></path><path d="M354.45614934811977,103.04171469251575L354.45614934811977,151.2426802985858L281.801015441098,73.69725515010929z" style="fill:rgb(238,238,238); fill-opacity: 0.24"></path><path d="M245.49378963727278,91.0692633357871L318.1489235442946,120.41372287819357M354.45614934811977,103.04171469251573L354.45614934811977,151.2426802985858M354.45614934811977,151.2426802985858L318.1489235442946,168.61468848426364" style="fill:none;stroke:rgb(0,0,0);stroke-width:1;stroke-linecap:round"></path><path d="M318.1489235442946,168.61468848426364L245.49378963727278,139.27022894185717L354.45614934811977,151.2426802985858zM245.49378963727278,91.06926333578711L318.1489235442946,120.41372287819358L281.801015441098,73.69725515010929zM245.49378963727278,91.06926333578711L245.49378963727278,139.27022894185717L318.1489235442946,120.41372287819358zM318.1489235442946,120.41372287819358L354.45614934811977,103.04171469251575L281.801015441098,73.69725515010929zM318.1489235442946,168.61468848426364L354.45614934811977,151.2426802985858L354.45614934811977,103.04171469251575zM245.49378963727278,139.27022894185717L318.1489235442946,168.61468848426364L318.1489235442946,120.41372287819358z" style="fill:rgb(238,238,238); fill-opacity: 0.24"></path><path d="M354.45614934811977,103.04171469251573L318.1489235442946,120.41372287819357M342.98960675801095,138.5290219388562L376.931063017724,152.23753276891125M318.1489235442946,120.41372287819357L318.1489235442946,168.61468848426364" style="fill:none;stroke:rgb(0,0,0);stroke-width:1;stroke-linecap:round"></path><path d="M318.1489235442946,120.41372287819358L318.1489235442946,168.61468848426364L354.45614934811977,103.04171469251575z" style="fill:rgb(238,238,238); fill-opacity: 0.24"></path><path d="M412.04396852096255,212.85189803373225L401.6646634730954,208.6598323024213M401.6646634730954,107.3801431742968L401.6646634730954,208.6598323024213M401.6646634730954,208.6598323024213L392.12858754525917,213.22258215207142" style="fill:none;stroke:rgb(0,0,0);stroke-width:1;stroke-linecap:round"></path><path d="M392.12858754525917,213.22258215207142L401.6646634730954,208.65983230242134L412.04396852096255,212.85189803373225z" style="fill:rgb(238,238,238); fill-opacity: 0.24"></path><path d="M412.04396852096255,111.57220890560772L412.04396852096255,212.85189803373225M412.04396852096255,212.85189803373225L402.5078925931263,217.41464788338234M392.12858754525917,111.9428930239469L392.12858754525917,213.22258215207142M392.12858754525917,213.22258215207142L402.5078925931263,217.41464788338234" style="fill:none;stroke:rgb(0,0,0);stroke-width:1;stroke-linecap:round"></path><path d="M402.5078925931263,217.41464788338234L392.12858754525917,213.22258215207142L412.04396852096255,212.85189803373225z" style="fill:rgb(238,238,238); fill-opacity: 0.24"></path><path d="M402.5078925931263,116.13495875525784L402.5078925931263,217.41464788338234" style="fill:none;stroke:rgb(0,0,0);stroke-width:1;stroke-linecap:round"></path><path d="M373.6599874054077,155.21365982327598L376.93106301772406,156.80364854536185L395.39920833550906,159.6965754264412zM378.952698846929,147.5761703715358L374.9094271885191,149.5107645684688L395.39920833550906,159.6965754264412z" style="fill:rgb(0,0,0)"></path><path d="M412.04396852096255,212.85189803373225L401.6646634730954,208.65983230242134L401.6646634730954,107.3801431742968z" style="fill:rgb(238,238,238); fill-opacity: 0.24"></path><path d="M374.9094271885191,149.5107645684688L373.6599874054077,155.21365982327598L395.39920833550906,159.6965754264412z" style="fill:rgb(0,0,0)"></path><path d="M401.6646634730954,208.65983230242134L392.12858754525917,213.22258215207142L392.12858754525917,111.94289302394691zM402.5078925931263,217.41464788338234L412.04396852096255,212.85189803373225L412.04396852096255,111.57220890560772zM392.12858754525917,213.22258215207142L402.5078925931263,217.41464788338234L402.5078925931263,116.13495875525783zM401.6646634730954,107.3801431742968L401.6646634730954,208.65983230242134L392.12858754525917,111.94289302394691zM412.04396852096255,111.57220890560772L412.04396852096255,212.85189803373225L401.6646634730954,107.3801431742968z" style="fill:rgb(238,238,238); fill-opacity: 0.24"></path><path d="M408.77334773071266,165.0982156312379L442.7148039904257,178.80672646129295" style="fill:none;stroke:rgb(0,0,0);stroke-width:1;stroke-linecap:round"></path><path d="M392.12858754525917,111.94289302394691L392.12858754525917,213.22258215207142L402.5078925931263,116.13495875525783zM402.5078925931263,116.13495875525783L402.5078925931263,217.41464788338234L412.04396852096255,111.57220890560772z" style="fill:rgb(238,238,238); fill-opacity: 0.24"></path><path d="M412.04396852096255,111.57220890560772L401.6646634730954,107.3801431742968M401.6646634730954,107.3801431742968L392.12858754525917,111.9428930239469M477.8277094936643,239.42109172611396L467.4484044457971,235.22902599480307M467.4484044457971,133.94933686667852L467.4484044457971,235.22902599480307M467.4484044457971,235.22902599480307L457.9123285179609,239.79177584445316M412.04396852096255,111.57220890560772L402.5078925931263,116.13495875525784" style="fill:none;stroke:rgb(0,0,0);stroke-width:1;stroke-linecap:round"></path><path d="M402.5078925931263,116.13495875525783L412.04396852096255,111.57220890560772L401.6646634730954,107.3801431742968zM392.12858754525917,111.94289302394691L402.5078925931263,116.13495875525783L401.6646634730954,107.3801431742968z" style="fill:rgb(238,238,238); fill-opacity: 0.24"></path><path d="M392.12858754525917,111.9428930239469L402.5078925931263,116.13495875525784" style="fill:none;stroke:rgb(0,0,0);stroke-width:1;stroke-linecap:round"></path><path d="M457.9123285179609,239.79177584445316L467.4484044457971,235.22902599480307L477.8277094936643,239.42109172611396z" style="fill:rgb(238,238,238); fill-opacity: 0.24"></path><path d="M477.8277094936643,138.14140259798947L477.8277094936643,239.42109172611396M477.8277094936643,239.42109172611396L468.2916335658281,243.9838415757641M457.9123285179609,138.51208671632864L457.9123285179609,239.79177584445316M457.9123285179609,239.79177584445316L468.2916335658281,243.9838415757641" style="fill:none;stroke:rgb(0,0,0);stroke-width:1;stroke-linecap:round"></path><path d="M468.2916335658281,243.98384157576405L457.9123285179609,239.79177584445316L477.8277094936643,239.42109172611396z" style="fill:rgb(238,238,238); fill-opacity: 0.24"></path><path d="M468.2916335658281,142.70415244763956L468.2916335658281,243.9838415757641" style="fill:none;stroke:rgb(0,0,0);stroke-width:1;stroke-linecap:round"></path><path d="M439.4437283781094,181.78285351565773L442.7148039904258,183.37284223774358L461.1829493082108,186.26576911882296zM444.7364398196308,174.1453640639175L440.6931681612208,176.07995826085053L461.1829493082108,186.26576911882296z" style="fill:rgb(0,0,0)"></path><path d="M477.8277094936643,239.42109172611396L467.4484044457971,235.22902599480307L467.4484044457971,133.94933686667852z" style="fill:rgb(238,238,238); fill-opacity: 0.24"></path><path d="M440.6931681612208,176.07995826085053L439.4437283781094,181.78285351565773L461.1829493082108,186.26576911882296z" style="fill:rgb(0,0,0)"></path><path d="M467.4484044457971,235.22902599480307L457.9123285179609,239.79177584445316L457.9123285179609,138.51208671632864zM468.2916335658281,243.98384157576405L477.8277094936643,239.42109172611396L477.8277094936643,138.14140259798944zM457.9123285179609,239.79177584445316L468.2916335658281,243.98384157576405L468.2916335658281,142.70415244763956zM467.4484044457971,133.94933686667852L467.4484044457971,235.22902599480307L457.9123285179609,138.51208671632864zM477.8277094936643,138.14140259798944L477.8277094936643,239.42109172611396L467.4484044457971,133.94933686667852z" style="fill:rgb(238,238,238); fill-opacity: 0.24"></path><path d="M474.55708870341437,191.66740932361967L508.4985449631274,205.3759201536747" style="fill:none;stroke:rgb(0,0,0);stroke-width:1;stroke-linecap:round"></path><path d="M457.9123285179609,138.51208671632864L457.9123285179609,239.79177584445316L468.2916335658281,142.70415244763956zM468.2916335658281,142.70415244763956L468.2916335658281,243.98384157576405L477.8277094936643,138.14140259798944z" style="fill:rgb(238,238,238); fill-opacity: 0.24"></path><path d="M477.8277094936643,138.14140259798947L467.4484044457971,133.94933686667852M467.4484044457971,133.94933686667852L457.9123285179609,138.51208671632864M477.8277094936643,138.14140259798947L468.2916335658281,142.70415244763956" style="fill:none;stroke:rgb(0,0,0);stroke-width:1;stroke-linecap:round"></path><path d="M468.2916335658281,142.70415244763956L477.8277094936643,138.14140259798944L467.4484044457971,133.94933686667852zM457.9123285179609,138.51208671632864L468.2916335658281,142.70415244763956L467.4484044457971,133.94933686667852z" style="fill:rgb(238,238,238); fill-opacity: 0.24"></path><path d="M457.9123285179609,138.51208671632864L468.2916335658281,142.70415244763956" style="fill:none;stroke:rgb(0,0,0);stroke-width:1;stroke-linecap:round"></path><path d="M505.2274693508111,208.35204720803947L508.4985449631274,209.9420359301253L526.9666902809125,212.83496281120466zM510.52018079233244,200.71455775629923L506.47690913392245,202.64915195323226L526.9666902809125,212.83496281120466z" style="fill:rgb(0,0,0)"></path><path d="M543.611450466366,225.38322284254284L533.2321454184989,221.19115711123192M533.2321454184989,201.1255931350131L533.2321454184989,221.19115711123192M533.2321454184989,221.19115711123192L523.6960694906627,225.753906960882" style="fill:none;stroke:rgb(0,0,0);stroke-width:1;stroke-linecap:round"></path><path d="M506.47690913392245,202.64915195323226L505.2274693508111,208.35204720803947L526.9666902809125,212.83496281120466z" style="fill:rgb(0,0,0)"></path><path d="M523.6960694906627,225.753906960882L533.2321454184989,221.19115711123192L543.611450466366,225.38322284254284zM543.611450466366,225.38322284254284L533.2321454184989,221.19115711123192L533.2321454184989,201.12559313501316z" style="fill:rgb(238,238,238); fill-opacity: 0.24"></path><path d="M543.611450466366,205.31765886632405L543.611450466366,225.38322284254284M543.611450466366,225.38322284254284L534.0753745385298,229.94597269219295M523.6960694906627,205.68834298466325L523.6960694906627,225.753906960882M523.6960694906627,225.753906960882L534.0753745385298,229.94597269219295" style="fill:none;stroke:rgb(0,0,0);stroke-width:1;stroke-linecap:round"></path><path d="M533.2321454184989,221.19115711123192L523.6960694906627,225.753906960882L523.6960694906627,205.68834298466325zM533.2321454184989,201.12559313501316L533.2321454184989,221.19115711123192L523.6960694906627,205.68834298466325z" style="fill:rgb(238,238,238); fill-opacity: 0.24"></path><path d="M543.611450466366,205.31765886632405L533.2321454184989,201.1255931350131M533.2321454184989,201.1255931350131L523.6960694906627,205.68834298466325" style="fill:none;stroke:rgb(0,0,0);stroke-width:1;stroke-linecap:round"></path><path d="M534.0753745385298,229.94597269219292L523.6960694906627,225.753906960882L543.611450466366,225.38322284254284zM543.611450466366,205.31765886632405L543.611450466366,225.38322284254284L533.2321454184989,201.12559313501316zM534.0753745385298,229.94597269219292L543.611450466366,225.38322284254284L543.611450466366,205.31765886632405z" style="fill:rgb(238,238,238); fill-opacity: 0.24"></path><path d="M534.0753745385298,209.88040871597414L534.0753745385298,229.94597269219295" style="fill:none;stroke:rgb(0,0,0);stroke-width:1;stroke-linecap:round"></path><path d="M523.6960694906627,225.753906960882L534.0753745385298,229.94597269219292L534.0753745385298,209.88040871597414z" style="fill:rgb(238,238,238); fill-opacity: 0.24"></path><path d="M543.611450466366,205.31765886632405L534.0753745385298,209.88040871597414" style="fill:none;stroke:rgb(0,0,0);stroke-width:1;stroke-linecap:round"></path><path d="M534.0753745385298,209.88040871597414L543.611450466366,205.31765886632405L533.2321454184989,201.12559313501316zM523.6960694906627,205.68834298466325L523.6960694906627,225.753906960882L534.0753745385298,209.88040871597414zM523.6960694906627,205.68834298466325L534.0753745385298,209.88040871597414L533.2321454184989,201.12559313501316z" style="fill:rgb(238,238,238); fill-opacity: 0.24"></path><path d="M523.6960694906627,205.68834298466325L534.0753745385298,209.88040871597414" style="fill:none;stroke:rgb(0,0,0);stroke-width:1;stroke-linecap:round"></path><path d="M534.0753745385298,209.88040871597414L534.0753745385298,229.94597269219292L543.611450466366,205.31765886632405z" style="fill:rgb(238,238,238); fill-opacity: 0.24"></path></svg>